<svg width="28" height="28" viewBox="0 0 28 28" fill="none" xmlns="http://www.w3.org/2000/svg">
<path d="M2.33331 24.5V6.0375H8.37081L10.5 3.5H17.5L19.6291 6.0375H25.6666V24.5H2.33331ZM4.08331 22.75H23.9166V7.7875H4.08331V22.75Z" fill="#E9E9E9"/>
<path d="M13.9854 20.2417C15.3952 20.2417 16.5764 19.7653 17.5292 18.8125C18.482 17.8597 18.9584 16.6785 18.9584 15.2688C18.9584 13.859 18.482 12.6827 17.5292 11.7396C16.5764 10.7965 15.3952 10.325 13.9854 10.325C12.5757 10.325 11.3993 10.7965 10.4563 11.7396C9.51321 12.6827 9.04169 13.859 9.04169 15.2688C9.04169 16.6785 9.51321 17.8597 10.4563 18.8125C11.3993 19.7653 12.5757 20.2417 13.9854 20.2417ZM13.9854 18.4917C13.0618 18.4917 12.2986 18.1854 11.6959 17.5729C11.0931 16.9604 10.7917 16.1924 10.7917 15.2688C10.7917 14.3452 11.0931 13.582 11.6959 12.9792C12.2986 12.3764 13.0618 12.075 13.9854 12.075C14.909 12.075 15.6771 12.3764 16.2896 12.9792C16.9021 13.582 17.2084 14.3452 17.2084 15.2688C17.2084 16.1924 16.9021 16.9604 16.2896 17.5729C15.6771 18.1854 14.909 18.4917 13.9854 18.4917Z" fill="#E3B505"/>
</svg>
