<svg width="28" height="28" viewBox="0 0 28 28" fill="none" xmlns="http://www.w3.org/2000/svg">
<path d="M18.2583 12.4541C18.6958 12.4541 19.0677 12.301 19.374 11.9948C19.6802 11.6885 19.8333 11.3166 19.8333 10.8791C19.8333 10.4416 19.6802 10.0698 19.374 9.76352C19.0677 9.45727 18.6958 9.30415 18.2583 9.30415C17.8208 9.30415 17.449 9.45727 17.1427 9.76352C16.8365 10.0698 16.6833 10.4416 16.6833 10.8791C16.6833 11.3166 16.8365 11.6885 17.1427 11.9948C17.449 12.301 17.8208 12.4541 18.2583 12.4541ZM9.74168 12.4541C10.1792 12.4541 10.5511 12.301 10.8573 11.9948C11.1636 11.6885 11.3167 11.3166 11.3167 10.8791C11.3167 10.4416 11.1636 10.0698 10.8573 9.76352C10.5511 9.45727 10.1792 9.30415 9.74168 9.30415C9.30418 9.30415 8.9323 9.45727 8.62605 9.76352C8.3198 10.0698 8.16668 10.4416 8.16668 10.8791C8.16668 11.3166 8.3198 11.6885 8.62605 11.9948C8.9323 12.301 9.30418 12.4541 9.74168 12.4541ZM14 25.6666C12.3861 25.6666 10.8695 25.3604 9.45001 24.7479C8.03057 24.1354 6.79584 23.3041 5.74584 22.2541C4.69584 21.2041 3.86459 19.9694 3.25209 18.55C2.63959 17.1305 2.33334 15.6139 2.33334 14C2.33334 12.3861 2.63959 10.8694 3.25209 9.44998C3.86459 8.03054 4.69584 6.79581 5.74584 5.74581C6.79584 4.69581 8.03057 3.86456 9.45001 3.25206C10.8695 2.63956 12.3861 2.33331 14 2.33331C15.6139 2.33331 17.1306 2.63956 18.55 3.25206C19.9695 3.86456 21.2042 4.69581 22.2542 5.74581C23.3042 6.79581 24.1354 8.03054 24.7479 9.44998C25.3604 10.8694 25.6667 12.3861 25.6667 14C25.6667 15.6139 25.3604 17.1305 24.7479 18.55C24.1354 19.9694 23.3042 21.2041 22.2542 22.2541C21.2042 23.3041 19.9695 24.1354 18.55 24.7479C17.1306 25.3604 15.6139 25.6666 14 25.6666ZM14 23.9166C16.7684 23.9166 19.1133 22.956 21.0347 21.0346C22.956 19.1133 23.9167 16.7684 23.9167 14C23.9167 11.2316 22.956 8.88669 21.0347 6.96533C19.1133 5.04399 16.7684 4.08331 14 4.08331C11.2316 4.08331 8.88672 5.04399 6.96536 6.96533C5.04402 8.88669 4.08334 11.2316 4.08334 14C4.08334 16.7684 5.04402 19.1133 6.96536 21.0346C8.88672 22.956 11.2316 23.9166 14 23.9166Z" fill="#E9E9E9"/>
<path d="M9 18.1125C11 22 17 22 19 18.1125V16.6833H9V18.1125Z" fill="#E3B505"/>
</svg>
